{"title":"Fantastic Four {2015} HDCAM XViD AC3 READNFO_MRG","uid":12212347,"size":1391355326,"categoryP":"video","categoryS":"movies","magnet":"?xt=urn:btih:98ef9f80476848890b1530abb425778a89e368a3&amp;dn=Fantastic+Four+%7B2015%7D+HDCAM+XViD+AC3+READNFO_MRG&amp;tr=udp%3A%2F%2Ftracker.openbittorrent.com%3A80&amp;tr=udp%3A%2F%2Fopen.demonii.com%3A1337&amp;tr=udp%3A%2F%2Ftracker.coppersurfer.tk%3A6969&amp;tr=udp%3A%2F%2Fexodus.desync.com%3A6969","seeders":3,"leechers":4,"uploader":"SaM","files":10,"time":1439132195,"description":"Fantastic Four {2015} HDCAM XViD AC3 READNFO_MRG\n\nnfo : repacked added missing audio to last few secs...\nperspective filter ,smoothed.. ect......\n\nFormat : AVI\nFormat/Info : Audio Video Interleave\nFile size : 1.29 GiB\nDuration : 1h 32mn\nOverall bit rate : 2 004 Kbps\nWriting library : VirtualDub build 35491/release\n\nVideo\nID : 0\nFormat : MPEG-4 Visual\nFormat profile : Advanced Simple@L5\nFormat settings, BVOP : 2\nFormat settings, QPel : No\nFormat settings, GMC : No warppoints\nFormat settings, Matrix : Default (H.263)\nCodec ID : XVID\nCodec ID/Hint : XviD\nDuration : 1h 32mn\nBit rate : 1 800 Kbps\nWidth : 720 pixels\nHeight : 304 pixels\nDisplay aspect ratio : 2.35:1\nFrame rate : 29.970 fps\nColor space : YUV\nChroma subsampling : 4:2:0\nBit depth : 8 bits\nScan type : Progressive\nCompression mode : Lossy\nBits/(Pixel*Frame) : 0.274\nStream size : 1.16 GiB (90%)\nWriting library : XviD 67\n\nAudio\nID : 1\nFormat : AC-3\nFormat/Info : Audio Coding 3\nMode extension : CM (complete main)\nFormat settings, Endianness : Big\nCodec ID : 2000\nDuration : 1h 32mn\nBit rate mode : Constant\nBit rate : 192 Kbps\nChannel(s) : 2 channels\nChannel positions : Front: L R\nSampling rate : 44.1 KHz\nCompression mode : Lossy\nStream size : 127 MiB (10%)\nAlignment : Split accross interleaves\nInterleave, duration : 33 ms (1.00 video frame)\nInterleave, preload duratio : 500 ms\n &lt;a href=&quot;\nhttp://extraimago.com/image/Sod&quot; rel=&quot;nofollow&quot; target=&quot;_NEW&quot;&gt;\nhttp://extraimago.com/image/Sod&lt;/a&gt; &lt;a href=&quot;\nhttp://extraimago.com/image/Soh&quot; rel=&quot;nofollow&quot; target=&quot;_NEW&quot;&gt;\nhttp://extraimago.com/image/Soh&lt;/a&gt; &lt;a href=&quot;\nhttp://extraimago.com/image/Sob&quot; rel=&quot;nofollow&quot; target=&quot;_NEW&quot;&gt;\nhttp://extraimago.com/image/Sob&lt;/a&gt; &lt;a href=&quot;\nhttp://extraimago.com/image/So3&quot; rel=&quot;nofollow&quot; target=&quot;_NEW&quot;&gt;\nhttp://extraimago.com/image/So3&lt;/a&gt; &lt;a href=&quot;\nhttp://extraimago.com/image/So9&quot; rel=&quot;nofollow&quot; target=&quot;_NEW&quot;&gt;\nhttp://extraimago.com/image/So9&lt;/a&gt; &lt;a href=&quot;\nhttp://extraimago.com/image/SoM&quot; rel=&quot;nofollow&quot; target=&quot;_NEW&quot;&gt;\nhttp://extraimago.com/image/SoM&lt;/a&gt;","torrent":{"xt":"urn:btih:98ef9f80476848890b1530abb425778a89e368a3","amp;dn":"Fantastic+Four+%7B2015%7D+HDCAM+XViD+AC3+READNFO_MRG","amp;tr":["udp%3A%2F%2Ftracker.openbittorrent.com%3A80","udp%3A%2F%2Fopen.demonii.com%3A1337","udp%3A%2F%2Ftracker.coppersurfer.tk%3A6969","udp%3A%2F%2Fexodus.desync.com%3A6969"],"infoHash":"98ef9f80476848890b1530abb425778a89e368a3","infoHashBuffer":{"type":"Buffer","data":[152,239,159,128,71,104,72,137,11,21,48,171,180,37,119,138,137,227,104,163]},"announce":[],"urlList":[]}}